<?xml version="1.0" standalone="no"?>
<!DOCTYPE svg PUBLIC "-//W3C//DTD SVG 20010904//EN"
 "http://www.w3.org/TR/2001/REC-SVG-20010904/DTD/svg10.dtd">
<svg version="1.0" xmlns="http://www.w3.org/2000/svg"
 width="1200.000000pt" height="1108.000000pt" viewBox="0 0 1200.000000 1108.000000"
 preserveAspectRatio="xMidYMid meet">
<metadata>
Created by potrace 1.16, written by Peter Selinger 2001-2019
</metadata>
<g transform="translate(0.000000,1108.000000) scale(0.100000,-0.100000)"
fill="#000000" stroke="none">
<path d="M4851 8167 c-628 -1090 -1144 -1986 -1145 -1991 -1 -7 545 -329 579
-342 6 -2 26 20 45 48 144 213 272 312 514 397 198 70 354 100 901 176 503 69
702 104 935 161 311 76 590 179 820 301 127 67 273 161 268 172 -9 24 -1764
3061 -1768 3061 -3 0 -520 -892 -1149 -1983z"/>
<path d="M8574 5357 c-202 -205 -327 -339 -639 -677 -164 -179 -363 -390 -442
-469 -79 -79 -141 -147 -138 -150 12 -11 3230 -1868 3234 -1865 3 3 -1874
3261 -1888 3276 -4 4 -61 -47 -127 -115z"/>
<path d="M2082 3369 c-635 -1101 -1152 -2003 -1149 -2005 2 -2 2082 -3 4623
-2 l4619 3 -1748 1010 c-962 556 -1775 1025 -1807 1043 l-58 33 -93 -78 c-124
-104 -324 -306 -461 -466 -63 -73 -153 -178 -202 -235 -93 -109 -127 -138
-151 -129 -8 4 -26 30 -41 59 -57 116 -148 168 -293 168 -151 0 -265 -96 -414
-351 -94 -162 -102 -173 -121 -166 -19 8 -21 95 -6 257 5 58 14 171 20 252 12
161 26 220 75 318 70 139 171 263 430 530 244 252 337 362 319 380 -8 7 -268
160 -324 190 -20 11 -21 9 -15 -23 6 -30 2 -39 -29 -70 -19 -20 -38 -47 -42
-62 -11 -42 1 -110 25 -142 46 -61 22 -163 -45 -199 -62 -34 -109 17 -134 144
-16 77 -8 219 15 284 19 53 74 115 107 120 17 2 -29 33 -172 116 -192 111
-195 112 -198 86 -2 -14 -33 -69 -69 -122 -63 -94 -139 -239 -169 -325 -20
-56 -19 -151 2 -212 9 -28 43 -106 76 -175 78 -166 91 -213 86 -315 -3 -64
-11 -95 -36 -148 -49 -106 -162 -207 -231 -207 -55 0 -132 175 -133 304 -1 39
8 114 20 168 26 115 29 260 8 370 -40 207 -30 276 52 368 26 30 92 110 145
177 93 116 148 173 168 173 25 0 1 19 -78 64 -65 37 -90 47 -102 39 -47 -28
-285 -360 -346 -483 l-27 -54 9 -296 c5 -162 5 -376 1 -475 -5 -99 -6 -191 -3
-204 3 -13 39 -58 78 -100 87 -91 110 -127 141 -219 72 -210 55 -424 -49 -638
-24 -50 -62 -114 -85 -143 -83 -105 -116 -61 -205 274 -97 361 -140 415 -308
386 -91 -16 -93 -15 -140 29 -84 77 -130 200 -217 592 -34 149 -81 352 -106
452 -52 210 -67 322 -54 400 11 68 11 69 125 241 139 212 431 693 424 699 -10
7 -549 316 -551 316 -2 -1 -522 -901 -1156 -2001z m2922 960 c33 -15 61 -69
53 -102 -4 -14 -40 -55 -79 -92 -73 -67 -73 -67 -72 -119 1 -28 15 -107 33
-175 90 -358 -32 -585 -164 -305 -32 69 -65 216 -65 297 0 178 127 446 235
493 16 7 31 13 32 14 1 0 13 -5 27 -11z m391 -1676 c131 -66 177 -195 124
-340 -32 -87 -83 -157 -190 -263 -202 -201 -315 -220 -394 -65 -27 53 -30 68
-30 149 0 116 19 160 135 316 94 126 175 205 224 219 37 12 89 5 131 -16z
m-1590 -104 c26 -7 56 -28 85 -58 39 -40 50 -62 82 -161 21 -63 47 -153 58
-200 35 -147 24 -190 -47 -190 -45 0 -80 35 -171 168 -115 168 -189 353 -163
408 19 42 79 54 156 33z"/>
</g>
</svg>
