<?xml version="1.0" standalone="no"?>
<!DOCTYPE svg PUBLIC "-//W3C//DTD SVG 20010904//EN"
 "http://www.w3.org/TR/2001/REC-SVG-20010904/DTD/svg10.dtd">
<svg version="1.0" xmlns="http://www.w3.org/2000/svg"
 width="400.000000pt" height="400.000000pt" viewBox="0 0 400.000000 400.000000"
 preserveAspectRatio="xMidYMid meet">
<metadata>
Created by potrace 1.14, written by Peter Selinger 2001-2017
</metadata>
<g transform="translate(0.000000,400.000000) scale(0.100000,-0.100000)"
fill="#000000" stroke="none">
<path d="M1947 3974 c-1 -2 -47 -5 -102 -8 -103 -6 -152 -11 -195 -21 -46 -10
-95 -18 -112 -19 -10 0 -18 -3 -18 -6 0 -3 -11 -7 -24 -8 -35 -3 -230 -69
-304 -103 -35 -16 -68 -29 -73 -29 -5 0 -9 -4 -9 -10 0 -5 -11 -12 -25 -16
-13 -3 -29 -12 -36 -20 -6 -8 -15 -11 -20 -8 -5 3 -9 0 -9 -6 0 -6 -4 -9 -9
-6 -5 3 -11 -1 -15 -9 -3 -8 -12 -15 -20 -15 -8 0 -20 -8 -25 -17 -6 -10 -11
-13 -11 -6 0 7 -12 2 -26 -11 -53 -47 -64 -56 -64 -48 0 4 -7 -2 -15 -12 -8
-11 -15 -16 -15 -12 0 4 -6 1 -13 -6 -8 -7 -28 -24 -47 -38 -18 -14 -56 -46
-84 -72 -28 -25 -61 -55 -73 -66 -13 -10 -20 -22 -17 -25 3 -3 -4 -8 -15 -12
-12 -3 -21 -9 -21 -13 0 -4 -20 -29 -45 -55 -25 -26 -43 -47 -41 -47 3 0 -9
-15 -27 -33 -18 -18 -33 -40 -35 -47 -2 -8 -8 -17 -13 -20 -16 -10 -98 -134
-93 -141 2 -4 -3 -10 -12 -13 -8 -3 -12 -10 -9 -16 3 -5 1 -10 -4 -10 -6 0
-11 -7 -11 -15 0 -8 -5 -15 -12 -15 -6 0 -8 -3 -5 -6 4 -4 -2 -19 -12 -33 -10
-14 -24 -43 -32 -63 -7 -21 -17 -38 -21 -38 -4 0 -8 -9 -8 -20 0 -11 -5 -20
-11 -20 -5 0 -8 -3 -5 -8 2 -4 -4 -25 -14 -47 -10 -22 -16 -43 -14 -47 3 -5 1
-8 -4 -8 -6 0 -24 -52 -38 -112 -1 -5 -2 -9 -3 -10 -2 -2 -5 -14 -8 -28 -7
-39 -11 -55 -13 -55 -2 0 -11 -38 -15 -65 -1 -14 -4 -25 -5 -25 -2 0 -12 -80
-14 -112 0 -13 -3 -23 -6 -23 -20 0 -15 -487 5 -520 2 -4 5 -25 6 -48 2 -23 6
-42 10 -42 4 0 6 -9 4 -20 -2 -11 -1 -20 3 -20 4 0 8 -10 8 -22 1 -21 26 -121
40 -158 3 -8 5 -16 5 -17 0 -4 26 -75 40 -108 7 -16 13 -32 14 -35 0 -3 6 -15
13 -28 7 -12 10 -22 7 -22 -4 0 1 -7 9 -16 9 -8 14 -20 11 -25 -4 -5 -1 -9 4
-9 6 0 11 -6 11 -14 0 -7 7 -19 15 -26 8 -7 13 -16 10 -20 -2 -4 4 -16 15 -27
10 -12 16 -24 13 -27 -4 -3 -2 -6 4 -6 6 0 13 -8 17 -17 6 -19 27 -55 37 -63
3 -3 21 -28 40 -56 38 -56 87 -118 136 -172 18 -19 33 -39 33 -44 0 -5 5 -6
10 -3 6 3 10 2 10 -3 0 -12 110 -122 122 -122 5 0 6 -4 3 -10 -3 -5 3 -10 14
-10 12 0 20 -5 18 -11 -1 -6 7 -16 18 -22 11 -7 27 -20 36 -29 9 -10 19 -18
23 -18 4 0 19 -11 34 -25 15 -14 32 -25 38 -25 7 0 14 -7 18 -15 3 -8 12 -15
21 -15 8 0 15 -3 15 -7 0 -5 18 -17 40 -27 22 -11 40 -23 40 -28 0 -5 5 -6 10
-3 5 3 10 1 10 -4 0 -6 7 -11 15 -11 8 0 15 -4 15 -10 0 -5 9 -10 20 -10 11 0
20 -4 20 -8 0 -5 18 -15 40 -22 22 -7 40 -17 40 -22 0 -4 3 -7 8 -6 6 1 26 -6
82 -29 66 -27 145 -51 152 -47 4 3 8 0 8 -6 0 -7 7 -10 15 -7 8 4 17 1 21 -4
3 -6 17 -9 30 -6 13 2 21 1 19 -3 -3 -4 16 -11 41 -15 25 -3 56 -8 67 -11 12
-2 36 -7 52 -10 17 -4 45 -7 63 -7 17 0 32 -5 32 -11 0 -6 5 -4 10 4 5 8 10
10 10 5 0 -6 17 -11 38 -12 20 -1 49 -4 64 -7 15 -2 31 0 34 6 5 7 12 4 21 -7
7 -11 13 -14 13 -8 0 12 25 12 36 0 4 -3 12 -3 18 0 18 12 51 11 58 -1 5 -7 8
-7 8 -1 0 6 19 10 43 10 23 0 46 1 51 4 10 4 58 10 124 13 17 1 32 6 32 10 0
4 14 5 30 3 17 -2 30 1 30 6 0 5 11 9 23 9 13 0 27 3 31 7 3 4 19 8 34 9 26 3
64 10 70 14 1 2 7 4 12 5 6 1 11 4 13 5 1 1 11 4 22 5 11 2 34 9 50 16 17 7
35 14 40 15 6 1 13 3 18 4 4 1 10 3 15 4 27 6 82 31 82 38 0 4 7 5 15 2 8 -4
15 -2 15 3 0 5 16 15 35 23 19 8 35 17 35 22 0 4 4 7 8 5 11 -3 102 44 102 53
0 5 11 11 25 14 14 4 25 11 25 17 0 6 5 7 10 4 6 -3 13 1 16 9 3 9 12 16 18
16 7 0 23 11 36 25 12 13 27 22 31 19 5 -3 9 2 9 10 0 9 4 15 8 13 5 -1 28 15
52 36 23 20 47 37 51 37 5 0 9 8 9 17 0 9 3 14 6 10 9 -8 33 16 26 27 -3 5 0
6 6 2 6 -4 19 3 29 15 10 11 32 35 48 52 17 17 29 35 27 40 -1 4 2 5 8 2 7 -4
14 2 17 14 3 11 9 18 14 15 5 -3 9 -1 9 4 0 5 10 20 23 34 21 25 55 66 96 119
11 15 17 30 13 34 -4 5 -1 5 6 1 9 -5 15 -1 19 13 3 12 10 21 16 21 6 0 8 3 5
6 -3 3 5 17 18 31 13 14 21 29 18 34 -3 5 0 9 6 9 6 0 8 5 5 10 -3 6 -2 10 4
10 5 0 27 35 48 78 21 42 43 80 48 84 6 4 6 8 1 8 -5 0 -3 7 4 15 7 8 9 15 5
15 -4 0 -2 6 4 14 9 11 73 175 71 184 -1 5 13 58 19 67 3 6 6 15 7 20 1 6 5
27 8 49 3 21 8 41 10 45 2 3 7 24 10 46 4 22 9 53 12 70 3 16 7 53 9 82 2 29
6 57 10 63 3 5 2 10 -4 10 -6 0 -8 6 -6 13 10 26 12 87 3 87 -5 0 -6 5 -2 11
8 13 12 149 4 149 -3 0 -6 25 -6 55 -1 30 -7 61 -13 69 -7 8 -8 17 -3 20 6 3
2 38 -9 84 -10 43 -20 89 -23 103 -3 13 -14 56 -26 94 -12 39 -24 79 -27 90
-3 11 -10 25 -15 32 -5 7 -7 17 -3 23 3 5 1 10 -4 10 -6 0 -11 8 -11 19 0 10
-7 24 -15 31 -8 7 -15 21 -15 31 0 10 -13 42 -30 72 -16 30 -27 57 -23 61 3 3
2 6 -4 6 -5 0 -20 23 -33 50 -13 28 -27 50 -32 50 -4 0 -8 7 -8 15 0 7 -6 18
-14 22 -7 4 -19 19 -26 32 -14 27 -16 31 -60 82 -16 20 -30 39 -30 43 0 3 -25
31 -55 62 -30 32 -55 61 -55 65 0 4 -9 11 -20 14 -11 4 -18 10 -15 15 3 4 -6
15 -18 23 -13 8 -40 31 -60 51 -21 20 -39 36 -41 36 -2 0 -25 20 -52 44 -27
25 -50 43 -52 41 -2 -2 -15 7 -28 20 -13 13 -33 26 -44 30 -11 4 -18 10 -16
14 3 4 -16 18 -42 32 -26 13 -52 30 -58 38 -6 8 -16 11 -22 7 -7 -4 -12 -3
-12 2 0 5 -21 20 -47 33 -27 13 -51 28 -54 32 -3 5 -10 9 -15 9 -5 -1 -22 5
-39 13 -78 35 -125 53 -125 49 0 -2 -13 2 -29 10 -16 9 -31 12 -35 9 -3 -4 -6
-2 -6 4 0 5 -6 10 -12 11 -15 1 -53 9 -78 17 -10 3 -28 8 -39 10 -12 3 -29 7
-40 9 -54 12 -158 28 -198 29 -18 1 -33 4 -33 7 0 3 -35 6 -78 8 -42 1 -96 3
-120 5 -24 1 -44 2 -45 1z"/>
</g>
</svg>
